<?xml version="1.0" encoding="UTF-8" standalone="no" ?>
<!DOCTYPE svg PUBLIC "-//W3C//DTD SVG 1.1//EN" "http://www.w3.org/Graphics/SVG/1.1/DTD/svg11.dtd">
<svg xmlns="http://www.w3.org/2000/svg" xmlns:xlink="http://www.w3.org/1999/xlink" version="1.1" width="32" height="32" viewBox="0 0 500 500" xml:space="preserve">
<desc>Created with Fabric.js 4.6.0</desc>
<defs>
</defs>
<g transform="matrix(1.09 0 0 1.09 250 250)" id="uARUmkdJNXZHkMXkAGIKq"  >
<path style="stroke: rgb(75,218,246); stroke-width: 0; stroke-dasharray: none; stroke-linecap: butt; stroke-dashoffset: 0; stroke-linejoin: miter; stroke-miterlimit: 4; fill: rgb(255,255,255); fill-rule: nonzero; opacity: 1;" vector-effect="non-scaling-stroke"  transform=" translate(-142.94, -204.41)" d="M 0 212.3403 C 0 200.40776000000002 9.67324 190.73452 21.60578 190.73452 L 37.349419999999995 190.73452 C 47.11897 190.73452 55.038759999999996 198.65431 55.038759999999996 208.42386 L 55.038759999999996 286.43964 L 235.08584 286.43964 L 235.08584 205.4112 C 235.08584 197.30549000000002 241.65680999999998 190.73452 249.76252 190.73452 L 263.78828 190.73452 C 275.01662999999996 190.73452 284.11899999999997 199.83689 284.11899999999997 211.06524000000002 L 284.11899999999997 312.53959000000003 C 284.11899999999997 324.47213000000005 274.44575999999995 334.14537 262.51322 334.14537 L 17.689339999999987 334.14537 C 7.919789999999987 334.14537 -1.4210854715202004e-14 326.22558000000004 -1.4210854715202004e-14 316.45603 z M 41.20105 354.72101 C 45.64286 350.62899999999996 51.461310000000005 348.35738999999995 57.5007 348.35738999999995 L 217.5005 348.35738999999995 C 223.14063 348.35738999999995 228.60521999999997 350.31879999999995 232.95794999999998 353.90554999999995 L 281.83801 394.18377999999996 C 284.52906 396.40126 285.53828 400.06946999999997 284.36029 403.35142999999994 C 283.18229 406.63338999999996 280.07069 408.8225099999999 276.58372 408.8225099999999 L 11.825580000000002 408.8225099999999 C 7.105280000000002 408.8225099999999 2.867950000000002 405.9280099999999 1.151270000000002 401.53093999999993 C -0.565409999999998 397.13386999999994 0.589860000000002 392.1340199999999 4.061510000000002 388.93575999999996 z M 0.30346 16.50774 C 0.26946000000000003 12.141469999999998 1.98014 7.942339999999998 5.055610000000001 4.8428299999999975 C 8.13108 1.7433199999999975 12.31676 -2.6645352591003757e-15 16.68316 -2.6645352591003757e-15 L 269.4317 -2.6645352591003757e-15 C 278.51365999999996 -2.6645352591003757e-15 285.87604 7.362379999999997 285.87604 16.444339999999997 L 285.87604 128.33601 C 285.87604 135.7052 281.81095999999997 142.47338 275.30557999999996 145.93534 C 244.74406999999997 162.19922 224.26160999999996 192.58596 220.65180999999995 227.01689 L 220.16052999999997 231.70279 C 218.63515999999996 246.25202 206.36848999999995 257.29987 191.73950999999997 257.29987 L 87.64572999999997 257.29987 C 78.46143999999997 257.29987 70.79602999999997 250.28938 69.97794999999996 241.14159999999998 L 68.00017999999996 219.02618999999999 C 65.38144999999996 189.74353 47.848129999999955 163.88093999999998 21.615889999999958 150.60685999999998 L 12.065159999999958 145.77398 C 5.433739999999958 142.41834 1.2310099999999586 135.64078 1.173149999999957 128.20891 z" stroke-linecap="round" />
</g>
</svg>