<?xml version="1.0" encoding="UTF-8" standalone="no" ?>
<!DOCTYPE svg PUBLIC "-//W3C//DTD SVG 1.1//EN" "http://www.w3.org/Graphics/SVG/1.1/DTD/svg11.dtd">
<svg xmlns="http://www.w3.org/2000/svg" xmlns:xlink="http://www.w3.org/1999/xlink" version="1.1" width="32" height="32" viewBox="0 0 500 500" xml:space="preserve">
<desc>Created with Fabric.js 4.6.0</desc>
<defs>
</defs>
<g transform="matrix(0.4 0 0 3.09 81.76 344.98)" id="abXpm0JIem-QJlCgH6UfP"  >
<path style="stroke: rgb(40,222,38); stroke-width: 0; stroke-dasharray: none; stroke-linecap: butt; stroke-dashoffset: 0; stroke-linejoin: miter; stroke-miterlimit: 4; fill: rgb(255,255,255); fill-rule: nonzero; opacity: 1;" vector-effect="non-scaling-stroke"  transform=" translate(0, 0)" d="M -39.30818 -32.63736 C -39.30818 -36.32155 -16.26451 -39.30818 12.161299999999997 -39.30818 L 12.161299999999997 -39.30818 L 12.161299999999997 -39.30818 C 27.1541 -39.30818 39.30817 -37.73292 39.30817 -35.78975 L 39.30817 32.63735 L 39.30817 32.63735 C 39.30817 36.32154 16.264499999999998 39.30817 -12.16131 39.30817 L -12.16131 39.30817 L -12.16131 39.30817 C -27.154110000000003 39.30817 -39.30818 37.73291 -39.30818 35.789739999999995 z" stroke-linecap="round" />
</g>
<g transform="matrix(0.28 0.28 -2.4 2.4 167.34 156.86)" id="QvLJ8gzydsRS8AO2S1JOw"  >
<path style="stroke: rgb(40,222,38); stroke-width: 0; stroke-dasharray: none; stroke-linecap: butt; stroke-dashoffset: 0; stroke-linejoin: miter; stroke-miterlimit: 4; fill: rgb(255,255,255); fill-rule: nonzero; opacity: 1;" vector-effect="non-scaling-stroke"  transform=" translate(0, 0)" d="M -39.30818 -32.64869 C -39.30818 -36.326620000000005 -14.059370000000001 -39.30818 17.086619999999996 -39.30818 L 17.086619999999996 -39.30818 L 17.086619999999996 -39.30818 C 29.359249999999996 -39.30818 39.30817999999999 -38.13334 39.30817999999999 -36.6841 L 39.30817999999999 32.64869 L 39.30817999999999 32.64869 C 39.30817999999999 36.326620000000005 14.059369999999994 39.30818 -17.086620000000003 39.30818 L -17.086620000000003 39.30818 L -17.086620000000003 39.30818 C -29.359250000000003 39.30818 -39.30818000000001 38.13334 -39.30818000000001 36.6841 z" stroke-linecap="round" />
</g>
<g transform="matrix(0 0.4 -1.77 0 135.78 452.3)" id="t-SATkPXi5xl9UKU23CEt"  >
<path style="stroke: rgb(40,222,38); stroke-width: 0; stroke-dasharray: none; stroke-linecap: butt; stroke-dashoffset: 0; stroke-linejoin: miter; stroke-miterlimit: 4; fill: rgb(255,255,255); fill-rule: nonzero; opacity: 1;" vector-effect="non-scaling-stroke"  transform=" translate(0, 0)" d="M -39.30818 -32.64546 C -39.30818 -36.32518 -26.077379999999998 -39.30818 -9.756350000000001 -39.30818 L 23.72147 -39.30818 L 23.72147 -39.30818 C 32.329769999999996 -39.30818 39.308170000000004 -37.73484 39.308170000000004 -35.79402 L 39.308170000000004 32.64546 L 39.308170000000004 32.64546 C 39.308170000000004 36.32518 26.077370000000002 39.30818 9.756340000000005 39.30818 L -23.721479999999996 39.30818 L -23.721479999999996 39.30818 C -32.32978 39.30818 -39.30817999999999 37.73484 -39.30817999999999 35.79402 z" stroke-linecap="round" />
</g>
<g transform="matrix(0.4 0 0 1.69 189.79 399.81)" id="tZ7lBG1HXegC2wGwHJXdk"  >
<path style="stroke: rgb(40,222,38); stroke-width: 0; stroke-dasharray: none; stroke-linecap: butt; stroke-dashoffset: 0; stroke-linejoin: miter; stroke-miterlimit: 4; fill: rgb(255,255,255); fill-rule: nonzero; opacity: 1;" vector-effect="non-scaling-stroke"  transform=" translate(0, 0)" d="M -39.30818 -32.64546 C -39.30818 -36.32518 -26.69436 -39.30818 -11.134409999999999 -39.30818 L 24.448310000000003 -39.30818 L 24.448310000000003 -39.30818 C 32.655190000000005 -39.30818 39.308170000000004 -37.73484 39.308170000000004 -35.79402 L 39.308170000000004 32.64546 L 39.308170000000004 32.64546 C 39.308170000000004 36.32518 26.694350000000004 39.30818 11.134400000000003 39.30818 L -24.44832 39.30818 L -24.44832 39.30818 C -32.6552 39.30818 -39.30818 37.73484 -39.30818 35.79402 z" stroke-linecap="round" />
</g>
<g transform="matrix(0.28 0.28 -1.09 1.09 227.07 307.67)" id="JgLQB6ejvr9B2YGDLk9Fg"  >
<path style="stroke: rgb(40,222,38); stroke-width: 0; stroke-dasharray: none; stroke-linecap: butt; stroke-dashoffset: 0; stroke-linejoin: miter; stroke-miterlimit: 4; fill: rgb(255,255,255); fill-rule: nonzero; opacity: 1;" vector-effect="non-scaling-stroke"  transform=" translate(0, 0)" d="M -39.30818 -32.63983 C -39.30818 -36.322660000000006 -27.80749 -39.30818000000001 -13.62068 -39.30818000000001 L 25.75965 -39.30818000000001 L 25.75965 -39.30818000000001 C 33.24229 -39.30818000000001 39.308170000000004 -37.73351000000001 39.308170000000004 -35.791050000000006 L 39.308170000000004 32.639829999999996 L 39.308170000000004 32.639829999999996 C 39.308170000000004 36.32266 27.807480000000005 39.30817999999999 13.620670000000004 39.30817999999999 L -25.759659999999997 39.30817999999999 L -25.759659999999997 39.30817999999999 C -33.2423 39.30817999999999 -39.30817999999999 37.733509999999995 -39.30817999999999 35.79104999999999 z" stroke-linecap="round" />
</g>
<g transform="matrix(-0.4 0 0 2.99 437.12 351.16)" id="4wBZa0Tbk73PB_O9qiDJZ"  >
<path style="stroke: rgb(40,222,38); stroke-width: 0; stroke-dasharray: none; stroke-linecap: butt; stroke-dashoffset: 0; stroke-linejoin: miter; stroke-miterlimit: 4; fill: rgb(255,255,255); fill-rule: nonzero; opacity: 1;" vector-effect="non-scaling-stroke"  transform=" translate(0, 0)" d="M -39.30818 -32.64546 C -39.30818 -36.32518 -16.9905 -39.30818 10.539749999999998 -39.30818 L 13.016579999999998 -39.30818 L 13.016579999999998 -39.30818 C 27.537029999999998 -39.30818 39.30817999999999 -37.73484 39.30817999999999 -35.79402 L 39.30817999999999 32.64546 L 39.30817999999999 32.64546 C 39.30817999999999 36.32518 16.990499999999994 39.30818 -10.539750000000005 39.30818 L -13.016580000000005 39.30818 L -13.016580000000005 39.30818 C -27.537030000000005 39.30818 -39.30818000000001 37.73484 -39.30818000000001 35.79402 z" stroke-linecap="round" />
</g>
<g transform="matrix(-0.28 0.28 2.5 2.5 343.41 157.07)" id="OCnj0DB5H68MGjVS0oRly"  >
<path style="stroke: rgb(40,222,38); stroke-width: 0; stroke-dasharray: none; stroke-linecap: butt; stroke-dashoffset: 0; stroke-linejoin: miter; stroke-miterlimit: 4; fill: rgb(255,255,255); fill-rule: nonzero; opacity: 1;" vector-effect="non-scaling-stroke"  transform=" translate(0, 0)" d="M -39.30818 -32.65392 C -39.30818 -36.32896 -12.96424 -39.30817 19.532649999999997 -39.30817 L 19.532649999999997 -39.30817 L 19.532649999999997 -39.30817 C 30.454369999999997 -39.30817 39.30817 -38.3069 39.30817 -37.071769999999994 L 39.30817 32.65393000000001 L 39.30817 32.65393000000001 C 39.30817 36.32897000000001 12.964229999999997 39.30818000000001 -19.53266 39.30818000000001 L -19.53266 39.30818000000001 L -19.53266 39.30818000000001 C -30.45438 39.30818000000001 -39.30818 38.30691000000001 -39.30818 37.071780000000004 z" stroke-linecap="round" />
</g>
<g transform="matrix(0 0.4 1.77 0 383.1 454.66)" id="uktZX5mRrylasQDI-hfBt"  >
<path style="stroke: rgb(40,222,38); stroke-width: 0; stroke-dasharray: none; stroke-linecap: butt; stroke-dashoffset: 0; stroke-linejoin: miter; stroke-miterlimit: 4; fill: rgb(255,255,255); fill-rule: nonzero; opacity: 1;" vector-effect="non-scaling-stroke"  transform=" translate(0, 0)" d="M -39.30818 -32.64546 C -39.30818 -36.32518 -26.077379999999998 -39.30818 -9.756350000000001 -39.30818 L 23.72147 -39.30818 L 23.72147 -39.30818 C 32.329769999999996 -39.30818 39.308170000000004 -37.73484 39.308170000000004 -35.79402 L 39.308170000000004 32.64546 L 39.308170000000004 32.64546 C 39.308170000000004 36.32518 26.077370000000002 39.30818 9.756340000000005 39.30818 L -23.721479999999996 39.30818 L -23.721479999999996 39.30818 C -32.32978 39.30818 -39.30817999999999 37.73484 -39.30817999999999 35.79402 z" stroke-linecap="round" />
</g>
<g transform="matrix(-0.4 0 0 1.69 329.09 402.16)" id="ETleFo1-Iyqn0lm-J3LMz"  >
<path style="stroke: rgb(40,222,38); stroke-width: 0; stroke-dasharray: none; stroke-linecap: butt; stroke-dashoffset: 0; stroke-linejoin: miter; stroke-miterlimit: 4; fill: rgb(255,255,255); fill-rule: nonzero; opacity: 1;" vector-effect="non-scaling-stroke"  transform=" translate(0, 0)" d="M -39.30818 -32.64546 C -39.30818 -36.32518 -26.69436 -39.30818 -11.134409999999999 -39.30818 L 24.448310000000003 -39.30818 L 24.448310000000003 -39.30818 C 32.655190000000005 -39.30818 39.308170000000004 -37.73484 39.308170000000004 -35.79402 L 39.308170000000004 32.64546 L 39.308170000000004 32.64546 C 39.308170000000004 36.32518 26.694350000000004 39.30818 11.134400000000003 39.30818 L -24.44832 39.30818 L -24.44832 39.30818 C -32.6552 39.30818 -39.30818 37.73484 -39.30818 35.79402 z" stroke-linecap="round" />
</g>
<g transform="matrix(-0.28 0.28 1.1 1.1 291.66 309.87)" id="PcNv8DjkOtOpDuYLCSmWK"  >
<path style="stroke: rgb(40,222,38); stroke-width: 0; stroke-dasharray: none; stroke-linecap: butt; stroke-dashoffset: 0; stroke-linejoin: miter; stroke-miterlimit: 4; fill: rgb(255,255,255); fill-rule: nonzero; opacity: 1;" vector-effect="non-scaling-stroke"  transform=" translate(0, 0)" d="M -39.30818 -32.65577 C -39.30818 -36.329789999999996 -27.76725 -39.30817999999999 -13.5308 -39.30817999999999 L 25.712249999999997 -39.30817999999999 L 25.712249999999997 -39.30817999999999 C 33.22107 -39.30817999999999 39.30817 -37.737269999999995 39.30817 -35.799459999999996 L 39.30817 32.65576 L 39.30817 32.65576 C 39.30817 36.32978 27.767239999999997 39.308170000000004 13.530789999999996 39.308170000000004 L -25.71226 39.308170000000004 L -25.71226 39.308170000000004 C -33.22108 39.308170000000004 -39.30818 37.737260000000006 -39.30818 35.79945000000001 z" stroke-linecap="round" />
</g>
</svg>