<?xml version="1.0" encoding="UTF-8" standalone="no" ?>
<!DOCTYPE svg PUBLIC "-//W3C//DTD SVG 1.1//EN" "http://www.w3.org/Graphics/SVG/1.1/DTD/svg11.dtd">
<svg xmlns="http://www.w3.org/2000/svg" xmlns:xlink="http://www.w3.org/1999/xlink" version="1.1" width="40" height="40" viewBox="0 0 500 500" xml:space="preserve">
<desc>Created with Fabric.js 4.6.0</desc>
<defs>
</defs>
<g transform="matrix(1.37 0 0 1.37 249.8 316.37)" id="X6XNFUlGpmk1mvaLgrBy7"  >
<path style="stroke: rgb(241,59,188); stroke-width: 0; stroke-dasharray: none; stroke-linecap: butt; stroke-dashoffset: 0; stroke-linejoin: miter; stroke-miterlimit: 4; fill: rgb(49,168,247); fill-rule: nonzero; opacity: 1;" vector-effect="non-scaling-stroke"  transform=" translate(-162.66, -33.46)" d="M 0.08356 35.58138 C -0.21323 30.217380000000002 0.14007999999999998 24.187820000000002 3.48068 19.978550000000002 C 6.4668600000000005 16.215860000000003 11.22444 15.224090000000002 15.87938 14.029860000000003 L 27.5771 11.031140000000002 C 28.41244 12.383600000000003 29.599990000000002 13.642330000000003 31.28342 14.772080000000003 C 20.79925 16.534250000000004 14.26548 18.471970000000002 14.83091 20.58217 C 17.26908 29.681540000000002 150.79174999999998 38.559160000000006 159.89112 36.12099 C 165.07921 34.73084 215.19016 33.09263 256.23894 27.94004 C 287.18542 24.05553 312.66994 17.011490000000002 311.62192000000005 13.10022 C 311.55523000000005 12.85134 311.37889000000007 12.60681 311.09874 12.36663 C 312.79342 11.852580000000001 314.38140000000004 11.32145 315.85565 10.77288 L 316.11937 10.85886 C 319.07389 11.20176 321.73997 12.79394 323.44298 15.2325 C 325.14599 17.67106 325.72274999999996 20.72235 325.02732 23.61428 L 320.50305 42.42824 C 319.962 44.67815 318.13973 46.393950000000004 315.86134999999996 46.798730000000006 L 267.68055999999996 55.35837000000001 L 203.06347999999997 62.26481000000001 L 144.27049999999997 66.91202000000001 L 70.63564999999997 62.26481000000001 L 5.3588499999999755 55.35837000000001 C 2.8949899999999755 54.96876000000001 0.7065699999999753 46.771980000000006 0.5679099999999755 44.28137000000001 C 0.4080699999999755 41.41038000000001 0.08352999999997551 35.58140000000001 0.08352999999997551 35.58140000000001 z M 140.6622 0 L 216.62268 0 L 243.94989 0.82541 C 199.47769 2.15802 141.52305 2.21435 107.30941000000001 2.12974 z M 10.22323 46.79874 L 74.87036 55.358380000000004 L 151.14412 57.84982 L 203.67082 55.358380000000004 L 267.68057 48.595600000000005 L 308.17739 42.428250000000006 C 310.18934 42.098960000000005 313.73948 37.58749 314.10277 35.581410000000005 L 317.19641 23.962540000000004 C 317.43542 22.642720000000004 316.94870000000003 21.296050000000005 315.9211 20.434030000000003 C 314.89351000000005 19.572010000000002 313.48272000000003 19.326890000000002 312.22458 19.791800000000002 L 271.69501 34.768190000000004 L 216.62269000000003 42.42824 L 135.23641000000003 44.391780000000004 L 70.63567000000003 41.018550000000005 L 33.632770000000036 34.76818 L 20.512740000000036 30.19957 L 13.055370000000035 26.395880000000002 C 8.400440000000035 27.590110000000003 8.345050000000036 26.436870000000003 5.358870000000035 30.19957 C 2.018280000000035 34.40882 7.669050000000035 46.48129 10.223240000000036 46.79872 z" stroke-linecap="round" />
</g>
<g transform="matrix(1.37 0 0 1.37 249.12 305.86)" id="8tA0wz6gtcT59cg-EpGOD"  >
<path style="stroke: rgb(217,254,156); stroke-width: 0; stroke-dasharray: none; stroke-linecap: butt; stroke-dashoffset: 0; stroke-linejoin: miter; stroke-miterlimit: 4; fill: rgb(49,168,247); fill-rule: nonzero; opacity: 1;" vector-effect="non-scaling-stroke"  transform=" translate(0, 0)" d="M -73.2943 -5.44614 C -38.25258000000001 -2.49597 3.862729999999999 0.2266200000000005 9.694249999999997 0.2266200000000005 C 16.77265 0.2266200000000005 62.213379999999994 -3.7156599999999993 99.8641 -8.385909999999999 C 128.64195999999998 -11.955559999999998 152.68067 -17.64376 152.68067 -12.233469999999999 C 152.68067 0.25522000000000133 19.46799999999999 14.46336 6.979309999999998 14.46336 C -5.509380000000002 14.46336 -152.68067 5.73706 -152.68067 -6.7516300000000005 C -152.68067 -13.40879 -113.29731999999998 -8.81401 -73.29429999999999 -5.44615 z" stroke-linecap="round" />
</g>
<g transform="matrix(-2.05 0 0 2.05 232.15 156.51)" id="LZO0rOZ9-EyoGFdP2WkWQ"  >
<path style="stroke: rgb(241,59,188); stroke-width: 0; stroke-dasharray: none; stroke-linecap: butt; stroke-dashoffset: 0; stroke-linejoin: miter; stroke-miterlimit: 4; fill: rgb(49,168,247); fill-rule: nonzero; opacity: 1;" vector-effect="non-scaling-stroke"  transform=" translate(0, 0)" d="M -108.38279 1.41691 C -108.58065 -2.15909 -108.34511 -6.178800000000001 -106.11804 -8.98498 C -104.12724999999999 -11.49344 -100.95553 -12.15462 -97.85224 -12.95077 L -88.17846 -15.43065 L -81.31264 -16.45419 L -58.52492 -19.50326 L -14.663690000000003 -22.30401 L 35.97663 -22.30401 L 70.01522 -21.27588 L 88.6939 -19.50326 L 102.30776 -15.06476 C 104.27744 -14.83616 106.05483 -13.774709999999999 107.19017 -12.149 C 108.32551 -10.52329 108.71002 -8.489099999999999 108.2464 -6.561149999999999 L 105.23021999999999 5.981490000000002 C 104.86952 7.481430000000001 103.65466999999998 8.625300000000003 102.13574999999999 8.895150000000001 L 70.01521999999999 14.601580000000002 L 26.937169999999988 19.20587 L -12.258150000000015 22.30401 L -61.348050000000015 19.20587 L -104.86592000000002 14.601580000000002 C -106.50849000000002 14.341840000000001 -107.96744000000001 8.877320000000001 -108.05988000000002 7.216910000000002 C -108.16644000000002 5.302920000000002 -108.38280000000002 1.4169300000000025 -108.38280000000002 1.4169300000000025 z M -101.62301 8.89515 L -58.524919999999995 14.601579999999998 L -7.675749999999994 16.262539999999998 L 27.342050000000008 14.601579999999998 L 70.01522 10.093059999999998 L 97.0131 5.981489999999997 C 98.3544 5.7619599999999975 100.72116 2.754319999999997 100.96334999999999 1.4169299999999971 L 103.02578 -6.328980000000003 C 103.18512 -7.208860000000003 102.86064 -8.106640000000002 102.17557 -8.681320000000003 C 101.49051 -9.256000000000004 100.54997999999999 -9.419410000000003 99.71122 -9.109470000000004 L 72.69151 0.8747899999999973 L 35.97662999999999 5.981489999999997 L -18.280890000000007 7.290519999999997 L -61.34805000000001 5.041699999999997 L -86.01665000000001 0.8747899999999973 L -94.76334000000001 -2.1709500000000026 L -99.73492000000002 -4.706740000000003 C -102.83821000000002 -3.9105900000000027 -102.87513000000001 -4.6794100000000025 -104.86592000000002 -2.1709500000000026 C -107.09298000000001 0.6352199999999972 -103.32580000000002 8.683529999999998 -101.62301000000002 8.895149999999997 z M -94.00286 -7.95251 C -91.801 -7.14477 -86.84853 -7.2217400000000005 -81.31264 -6.3289800000000005 C -72.57499 -4.9198900000000005 -60.16114 -4.341150000000001 -60.16114 -4.341150000000001 L -39.352270000000004 -2.721470000000001 L -9.410260000000005 -0.785330000000001 L 27.342049999999997 -2.721470000000001 L 61.32919 -4.706740000000001 L 82.41575999999999 -8.681320000000001 L 90.80121999999999 -12.149000000000001 C 91.02248999999999 -12.36771 90.91220999999999 -13.870890000000001 90.80121999999999 -14.16153 C 90.69022999999999 -14.45217 86.75310999999999 -15.48793 86.44237999999999 -15.503480000000001 L 67.76903999999999 -16.43795 L 35.976629999999986 -16.45419 L -7.675750000000015 -16.45419 L -55.26136000000002 -15.06476 L -73.43070000000002 -12.95077 L -87.06462000000002 -12.149000000000001 C -87.36516000000002 -12.10148 -95.05208000000002 -10.08763 -94.76334000000001 -9.99168 C -94.00523000000001 -9.73975 -95.01084000000002 -8.322280000000001 -94.00286000000001 -7.95251 z" stroke-linecap="round" />
</g>
<g transform="matrix(-1.51 -0.4 -0.4 1.51 231.16 134.53)" id="ipnKL20OHXiMHtzX9gML2"  >
<path style="stroke: rgb(199,201,121); stroke-width: 0; stroke-dasharray: none; stroke-linecap: butt; stroke-dashoffset: 0; stroke-linejoin: miter; stroke-miterlimit: 4; fill: rgb(49,168,247); fill-rule: nonzero; opacity: 1;" vector-effect="non-scaling-stroke"  transform=" translate(0, 0)" d="M -7.20318 -14.87444 C 1.0602900000000002 -14.87444 126.58533 21.74472 126.58533 30.00819 C 126.58533 33.56017 103.39296999999999 33.74274 76.28999999999999 30.00819 C 40.33941999999999 25.05451 -2.4916900000000055 15.065679999999999 -7.203180000000003 15.065679999999999 C -15.466650000000003 15.065679999999999 -126.58534 -22.770580000000002 -126.58534 -31.03405 C -126.58534 -39.29752 -15.466650000000001 -14.87444 -7.203180000000003 -14.87444 z" stroke-linecap="round" />
</g>
<g transform="matrix(-1.37 0 0 1.37 256.91 206.96)" id="rcZ8tTNcTPIsQFxdGnj8d"  >
<path style="stroke: rgb(241,59,188); stroke-width: 0; stroke-dasharray: none; stroke-linecap: butt; stroke-dashoffset: 0; stroke-linejoin: miter; stroke-miterlimit: 4; fill: rgb(49,168,247); fill-rule: nonzero; opacity: 1;" vector-effect="non-scaling-stroke"  transform=" translate(-162.66, -33.46)" d="M 0.08356 35.58138 C -0.21323 30.217380000000002 0.14007999999999998 24.187820000000002 3.48068 19.978550000000002 C 6.4668600000000005 16.215860000000003 11.22444 15.224090000000002 15.87938 14.029860000000003 L 27.5771 11.031140000000002 C 28.41244 12.383600000000003 29.599990000000002 13.642330000000003 31.28342 14.772080000000003 C 20.79925 16.534250000000004 14.26548 18.471970000000002 14.83091 20.58217 C 17.26908 29.681540000000002 150.79174999999998 38.559160000000006 159.89112 36.12099 C 165.07921 34.73084 215.19016 33.09263 256.23894 27.94004 C 287.18542 24.05553 312.66994 17.011490000000002 311.62192000000005 13.10022 C 311.55523000000005 12.85134 311.37889000000007 12.60681 311.09874 12.36663 C 312.79342 11.852580000000001 314.38140000000004 11.32145 315.85565 10.77288 L 316.11937 10.85886 C 319.07389 11.20176 321.73997 12.79394 323.44298 15.2325 C 325.14599 17.67106 325.72274999999996 20.72235 325.02732 23.61428 L 320.50305 42.42824 C 319.962 44.67815 318.13973 46.393950000000004 315.86134999999996 46.798730000000006 L 267.68055999999996 55.35837000000001 L 203.06347999999997 62.26481000000001 L 144.27049999999997 66.91202000000001 L 70.63564999999997 62.26481000000001 L 5.3588499999999755 55.35837000000001 C 2.8949899999999755 54.96876000000001 0.7065699999999753 46.771980000000006 0.5679099999999755 44.28137000000001 C 0.4080699999999755 41.41038000000001 0.08352999999997551 35.58140000000001 0.08352999999997551 35.58140000000001 z M 140.6622 0 L 216.62268 0 L 243.94989 0.82541 C 199.47769 2.15802 141.52305 2.21435 107.30941000000001 2.12974 z M 10.22323 46.79874 L 74.87036 55.358380000000004 L 151.14412 57.84982 L 203.67082 55.358380000000004 L 267.68057 48.595600000000005 L 308.17739 42.428250000000006 C 310.18934 42.098960000000005 313.73948 37.58749 314.10277 35.581410000000005 L 317.19641 23.962540000000004 C 317.43542 22.642720000000004 316.94870000000003 21.296050000000005 315.9211 20.434030000000003 C 314.89351000000005 19.572010000000002 313.48272000000003 19.326890000000002 312.22458 19.791800000000002 L 271.69501 34.768190000000004 L 216.62269000000003 42.42824 L 135.23641000000003 44.391780000000004 L 70.63567000000003 41.018550000000005 L 33.632770000000036 34.76818 L 20.512740000000036 30.19957 L 13.055370000000035 26.395880000000002 C 8.400440000000035 27.590110000000003 8.345050000000036 26.436870000000003 5.358870000000035 30.19957 C 2.018280000000035 34.40882 7.669050000000035 46.48129 10.223240000000036 46.79872 z" stroke-linecap="round" />
</g>
<g transform="matrix(-1.37 0 0 1.37 253.82 197.69)" id="vhtXCx-JOsd8gGIk-nIvZ"  >
<path style="stroke: rgb(217,254,156); stroke-width: 0; stroke-dasharray: none; stroke-linecap: butt; stroke-dashoffset: 0; stroke-linejoin: miter; stroke-miterlimit: 4; fill: rgb(49,168,247); fill-rule: nonzero; opacity: 1;" vector-effect="non-scaling-stroke"  transform=" translate(0, 0)" d="M -73.2943 -5.44614 C -38.25258000000001 -2.49597 3.862729999999999 0.2266200000000005 9.694249999999997 0.2266200000000005 C 16.77265 0.2266200000000005 62.213379999999994 -3.7156599999999993 99.8641 -8.385909999999999 C 128.64195999999998 -11.955559999999998 152.68067 -17.64376 152.68067 -12.233469999999999 C 152.68067 0.25522000000000133 19.46799999999999 14.46336 6.979309999999998 14.46336 C -5.509380000000002 14.46336 -152.68067 5.73706 -152.68067 -6.7516300000000005 C -152.68067 -13.40879 -113.29731999999998 -8.81401 -73.29429999999999 -5.44615 z" stroke-linecap="round" />
</g>
<g transform="matrix(1.37 0 0 1.37 274.57 265.91)" id="T-P9ANZHJ48CrCcyDffj-"  >
<path style="stroke: rgb(241,59,188); stroke-width: 0; stroke-dasharray: none; stroke-linecap: butt; stroke-dashoffset: 0; stroke-linejoin: miter; stroke-miterlimit: 4; fill: rgb(49,168,247); fill-rule: nonzero; opacity: 1;" vector-effect="non-scaling-stroke"  transform=" translate(-162.66, -33.46)" d="M 0.08356 35.58138 C -0.21323 30.217380000000002 0.14007999999999998 24.187820000000002 3.48068 19.978550000000002 C 6.4668600000000005 16.215860000000003 11.22444 15.224090000000002 15.87938 14.029860000000003 L 30.39005 10.310040000000003 L 40.68878 8.774730000000002 L 52.89363 7.141680000000002 C 55.88199 8.505670000000002 59.72934 9.688790000000001 64.19805 10.714990000000002 C 36.784409999999994 13.410670000000001 13.790539999999993 16.70946 14.830909999999996 20.592170000000003 C 17.269079999999995 29.691540000000003 150.79174999999998 38.569160000000004 159.89112 36.130990000000004 C 165.07921 34.740840000000006 215.19016 33.102630000000005 256.23894 27.950040000000005 C 287.18542 24.065530000000006 312.66994 17.021490000000007 311.62192000000005 13.110220000000005 C 311.00877 10.821920000000006 301.12507000000005 8.901220000000006 286.52757 7.346720000000006 C 290.1274 6.3982700000000055 293.25820000000004 5.362610000000005 295.79316 4.231960000000006 L 316.11937 10.858870000000007 C 319.07389 11.201770000000007 321.73997 12.793950000000006 323.44298 15.232510000000007 C 325.14599 17.671070000000007 325.72274999999996 20.722360000000005 325.02732 23.614290000000004 L 320.50305 42.428250000000006 C 319.962 44.678160000000005 318.13973 46.39396000000001 315.86134999999996 46.79874000000001 L 267.68055999999996 55.35838000000001 L 203.06347999999997 62.264820000000014 L 144.27049999999997 66.91203000000002 L 70.63564999999997 62.264820000000014 L 5.3588499999999755 55.35838000000001 C 2.8949899999999755 54.96877000000001 0.7065699999999753 46.77199000000001 0.5679099999999755 44.28138000000001 C 0.4080699999999755 41.410390000000014 0.08352999999997551 35.58141000000001 0.08352999999997551 35.58141000000001 z M 10.22323 46.79874 L 74.87036 55.358380000000004 L 151.14412 57.84982 L 203.67082 55.358380000000004 L 267.68057 48.595600000000005 L 308.17739 42.428250000000006 C 310.18934 42.098960000000005 313.73948 37.58749 314.10277 35.581410000000005 L 317.19641 23.962540000000004 C 317.43542 22.642720000000004 316.94870000000003 21.296050000000005 315.9211 20.434030000000003 C 314.89351000000005 19.572010000000002 313.48272000000003 19.326890000000002 312.22458 19.791800000000002 L 271.69501 34.768190000000004 L 216.62269000000003 42.42824 L 135.23641000000003 44.391780000000004 L 70.63567000000003 41.018550000000005 L 33.632770000000036 34.76818 L 20.512740000000036 30.19957 L 13.055370000000035 26.395880000000002 C 8.400440000000035 27.590110000000003 8.345050000000036 26.436870000000003 5.358870000000035 30.19957 C 2.018280000000035 34.40882 7.669050000000035 46.48129 10.223240000000036 46.79872 z M 162.65776 0.00001 C 162.64063 0.00001 162.62338 0.00001 162.606 0 L 167.48086999999998 0 C 165.42629 0.00343 163.79128999999998 0.00001 162.65776 0.00001 z" stroke-linecap="round" />
</g>
<g transform="matrix(1.37 0 0 1.37 274.57 252.8)" id="qDBLydDEbJQHFX_iGrZm-"  >
<path style="stroke: rgb(92,43,253); stroke-width: 0; stroke-dasharray: none; stroke-linecap: butt; stroke-dashoffset: 0; stroke-linejoin: miter; stroke-miterlimit: 4; fill: rgb(49,168,247); fill-rule: nonzero; opacity: 1;" vector-effect="non-scaling-stroke"  transform=" translate(0, 0)" d="M 23.7013 -4.63651 C 33.47808 -4.63651 65.38242 -6.9614 96.80533 -10.48067 C 122.98459 -13.412659999999999 150.32468 -18.625970000000002 150.32468 -10.48067 C 150.32468 7.441410000000001 15.876419999999996 14.84401 -2.045659999999998 14.84401 C -19.96774 14.84401 -150.32467 13.28557 -150.32467 -4.636509999999998 C -150.32467 -22.55859 5.7792300000000125 -4.636509999999998 23.701300000000003 -4.636509999999998 z" stroke-linecap="round" />
</g>
</svg>